<?xml version="1.0" encoding="utf-8"?>
<!-- Svg Vector Icons : http://www.onlinewebfonts.com/icon -->
<!DOCTYPE svg PUBLIC "-//W3C//DTD SVG 1.1//EN" "http://www.w3.org/Graphics/SVG/1.1/DTD/svg11.dtd">
<svg version="1.1" xmlns="http://www.w3.org/2000/svg" xmlns:xlink="http://www.w3.org/1999/xlink" x="0px" y="0px" viewBox="0 0 256 256" enable-background="new 0 0 256 256" xml:space="preserve">
<metadata> Svg Vector Icons : http://www.onlinewebfonts.com/icon </metadata>
<g><g><path fill="#000000" d="M165.8,163.9H16.8c-3.8,0-6.8,3.1-6.8,6.8s3.1,6.8,6.8,6.8h148.9c12.5,0,22.7,10.2,22.7,22.7c0,12.5-10.2,22.7-22.7,22.7c-9,0-17.1-5.3-20.8-13.5c-1.5-3.4-5.6-5-9-3.5c-3.4,1.5-5,5.6-3.5,9c5.9,13.1,18.9,21.6,33.3,21.6c20.1,0,36.4-16.3,36.4-36.4C202.2,180.2,185.9,163.9,165.8,163.9z"/><path fill="#000000" d="M203,48.9c-19.8,0-36.9,13.4-41.7,32.6c-0.9,3.7,1.3,7.4,5,8.3c3.7,0.9,7.4-1.3,8.3-5c3.3-13.1,15-22.2,28.4-22.2c16.2,0,29.3,13.1,29.3,29.3c0,16.1-13.1,29.3-29.3,29.3H16.8c-3.8,0-6.8,3.1-6.8,6.9c0,3.8,3.1,6.8,6.8,6.8H203c23.7,0,43-19.3,43-43C246,68.2,226.7,48.9,203,48.9z"/><path fill="#000000" d="M16.8,92.1h89.8c0.2,0,0.4,0,0.6,0c0.2,0,0.4,0,0.6,0c20.1,0,36.4-16.3,36.4-36.4s-16.3-36.4-36.4-36.4c-14.4,0-27.4,8.5-33.3,21.6c-1.5,3.4,0,7.5,3.5,9c3.4,1.5,7.5,0,9-3.5C90.6,38.3,98.8,33,107.7,33c12.5,0,22.7,10.2,22.7,22.7c0,12.5-10.2,22.7-22.7,22.7c-0.2,0-0.4,0-0.6,0c-0.2,0-0.4,0-0.6,0H16.8c-3.8,0-6.8,3.1-6.8,6.8S13.1,92.1,16.8,92.1z"/></g></g>
</svg>